<?xml version="1.0" encoding="UTF-8"?>
<svg version="1.1" xmlns="http://www.w3.org/2000/svg" width="516" height="423">
<path d="M0 0 C1.78151459 -0.00281982 3.56302917 -0.00563965 5.39852905 -0.00854492 C8.36161797 -0.00550858 8.36161797 -0.00550858 11.38456726 -0.00241089 C13.47046438 -0.00376492 15.55636126 -0.00554486 17.64225769 -0.00772095 C23.33138237 -0.01230042 29.02048902 -0.01050222 34.70961404 -0.00734186 C40.67004715 -0.00481454 46.63047869 -0.00715743 52.59091187 -0.00872803 C62.62288185 -0.01055132 72.65484449 -0.00814206 82.68681335 -0.00338745 C94.24429587 0.00202735 105.80176067 0.00031354 117.35924274 -0.00521386 C127.29580056 -0.00977422 137.2323531 -0.01038046 147.16891164 -0.00777519 C153.09625645 -0.00622479 159.023593 -0.00598386 164.95093727 -0.00931168 C170.54460843 -0.01223194 176.13825719 -0.01013953 181.73192596 -0.00441742 C184.73149079 -0.00249402 187.73105754 -0.00541017 190.73062134 -0.00854492 C236.56296393 0.06188163 236.56296393 0.06188163 244.85209656 8.12698364 C256.99022181 55.63732237 196.26944218 130.86279812 166.85209656 163.12698364 C165.36709656 165.10698364 165.36709656 165.10698364 163.85209656 167.12698364 C162.53209656 167.12698364 161.21209656 167.12698364 159.85209656 167.12698364 C159.19209656 168.44698364 158.53209656 169.76698364 157.85209656 171.12698364 C156.20975695 172.81762736 154.53697651 174.47873151 152.85209656 176.12698364 C151.44992874 177.72561643 150.05447297 179.33015306 148.66459656 180.93948364 C144.85209656 185.12698364 144.85209656 185.12698364 142.85209656 185.12698364 C142.52209656 186.11698364 142.19209656 187.10698364 141.85209656 188.12698364 C140.20209656 189.11698364 138.55209656 190.10698364 136.85209656 191.12698364 C133.68710498 194.15055387 133.68710498 194.15055387 130.85209656 198.12698364 C129.53209656 198.12698364 128.21209656 198.12698364 126.85209656 198.12698364 C126.85209656 199.44698364 126.85209656 200.76698364 126.85209656 202.12698364 C122.85209656 205.12698364 122.85209656 205.12698364 119.85209656 205.12698364 C119.19209656 206.44698364 118.53209656 207.76698364 117.85209656 209.12698364 C111.62132733 215.12698364 111.62132733 215.12698364 106.85209656 215.12698364 C106.85209656 215.78698364 106.85209656 216.44698364 106.85209656 217.12698364 C105.86209656 217.12698364 104.87209656 217.12698364 103.85209656 217.12698364 C103.85209656 217.78698364 103.85209656 218.44698364 103.85209656 219.12698364 C102.86209656 219.12698364 101.87209656 219.12698364 100.85209656 219.12698364 C100.85209656 219.78698364 100.85209656 220.44698364 100.85209656 221.12698364 C99.86209656 221.12698364 98.87209656 221.12698364 97.85209656 221.12698364 C97.85209656 222.15823364 97.85209656 223.18948364 97.85209656 224.25198364 C95.94509671 231.64160806 88.65520885 234.72588519 81.85209656 237.12698364 C80.86209656 237.12698364 79.87209656 237.12698364 78.85209656 237.12698364 C78.85209656 238.11698364 78.85209656 239.10698364 78.85209656 240.12698364 C77.53209656 240.12698364 76.21209656 240.12698364 74.85209656 240.12698364 C74.52209656 241.11698364 74.19209656 242.10698364 73.85209656 243.12698364 C68.85209656 245.12698364 68.85209656 245.12698364 66.85209656 244.12698364 C66.85209656 245.44698364 66.85209656 246.76698364 66.85209656 248.12698364 C65.53209656 248.12698364 64.21209656 248.12698364 62.85209656 248.12698364 C62.85209656 248.78698364 62.85209656 249.44698364 62.85209656 250.12698364 C61.86209656 250.45698364 60.87209656 250.78698364 59.85209656 251.12698364 C59.52209656 251.78698364 59.19209656 252.44698364 58.85209656 253.12698364 C57.86209656 253.27135864 56.87209656 253.41573364 55.85209656 253.56448364 C52.49494665 253.74150457 52.49494665 253.74150457 51.85209656 257.12698364 C46.85209656 260.12698364 46.85209656 260.12698364 42.85209656 260.12698364 C42.19209656 261.77698364 41.53209656 263.42698364 40.85209656 265.12698364 C37.08500528 267.41690055 33.41562273 269.42941485 29.47709656 271.37698364 C28.35690125 271.94328491 27.23670593 272.50958618 26.08256531 273.0930481 C-0.81377239 286.57747052 -0.81377239 286.57747052 -13.14790344 289.12698364 C-14.50915344 289.68385864 -15.87040344 290.24073364 -17.27290344 290.81448364 C-21.47222113 292.23683318 -23.8768418 292.1057686 -28.14790344 291.12698364 C-28.14790344 292.11698364 -28.14790344 293.10698364 -28.14790344 294.12698364 C-30.45790344 294.45698364 -32.76790344 294.78698364 -35.14790344 295.12698364 C-35.14790344 295.78698364 -35.14790344 296.44698364 -35.14790344 297.12698364 C-39.14790344 299.12698364 -39.14790344 299.12698364 -42.14790344 299.12698364 C-42.14790344 299.78698364 -42.14790344 300.44698364 -42.14790344 301.12698364 C-45.86998139 302.37484793 -49.55078654 303.47562825 -53.33540344 304.50198364 C-54.47292053 304.8136145 -55.61043762 305.12524536 -56.78242493 305.44631958 C-79.36074901 311.50334225 -102.56438609 315.28968977 -125.96040344 315.56448364 C-127.01509827 315.58671997 -128.06979309 315.6089563 -129.15644836 315.63186646 C-146.47319057 315.58234682 -157.40410968 307.01889473 -165.14790344 292.12698364 C-165.47790344 290.80698364 -165.80790344 289.48698364 -166.14790344 288.12698364 C-164.48243469 288.07799927 -162.81696594 288.02901489 -161.10102844 287.97854614 C-158.86663944 287.90344063 -156.63226517 287.82789627 -154.39790344 287.75198364 C-152.76014954 287.70557739 -152.76014954 287.70557739 -151.08930969 287.65823364 C-143.61043493 287.39271146 -136.51117717 286.46279879 -129.14790344 285.12698364 C-128.48790344 285.12698364 -127.82790344 285.12698364 -127.14790344 285.12698364 C-124.56343799 275.21986609 -124.95808226 265.30350804 -125.14790344 255.12698364 C-125.80790344 255.12698364 -126.46790344 255.12698364 -127.14790344 255.12698364 C-127.03443188 251.33464463 -126.90767558 247.54357315 -126.77290344 243.75198364 C-126.74196594 242.67174927 -126.71102844 241.59151489 -126.67915344 240.47854614 C-126.37446594 232.35354614 -126.37446594 232.35354614 -124.14790344 230.12698364 C-120.96641967 229.86989405 -117.77587607 229.72089012 -114.58540344 229.62698364 C-101.83143376 229.85311269 -101.83143376 229.85311269 -92.14790344 223.12698364 C-91.04547807 216.3209923 -90.87388788 209.44689806 -90.58540344 202.56448364 C-90.44102844 199.12010864 -90.29665344 195.67573364 -90.14790344 192.12698364 C-76.94790344 192.12698364 -63.74790344 192.12698364 -50.14790344 192.12698364 C-50.09182922 196.47950317 -50.09182922 196.47950317 -50.03462219 200.91995239 C-49.96897446 204.71814266 -49.90252672 208.51631916 -49.83540344 212.31448364 C-49.81284485 214.22809692 -49.79028625 216.14171021 -49.76704407 218.11331177 C-49.73159485 219.94700317 -49.69614563 221.78069458 -49.65962219 223.66995239 C-49.63343811 225.36144409 -49.60725403 227.05293579 -49.58027649 228.79568481 C-48.91383986 235.47171657 -47.37816198 237.63488023 -41.14790344 240.12698364 C-37.10579817 240.32021137 -33.13485881 240.40704501 -29.09321594 240.39260864 C-27.91830597 240.39452209 -26.743396 240.39643555 -25.53288269 240.39840698 C-23.04989915 240.39976674 -20.56690844 240.39608492 -18.0839386 240.38772583 C-14.29389863 240.37704282 -10.50433474 240.38761867 -6.71430969 240.40042114 C-4.29894407 240.39909914 -1.88357874 240.39653589 0.53178406 240.39260864 C2.22583878 240.39868134 2.22583878 240.39868134 3.95411682 240.40487671 C15.45327278 240.69515093 15.45327278 240.69515093 22.85209656 233.12698364 C23.41772632 228.62414422 23.41772632 228.62414422 23.51225281 223.55667114 C23.58379578 221.69139771 23.65533875 219.82612427 23.72904968 217.90432739 C23.79028015 215.95655396 23.85151062 214.00878052 23.91459656 212.00198364 C24.04299561 208.14492687 24.17930187 204.28812253 24.32475281 200.43167114 C24.378974 198.71963501 24.43319519 197.00759888 24.48905945 195.24368286 C24.85209656 191.12698364 24.85209656 191.12698364 26.85209656 188.12698364 C25.86209656 186.47698364 24.87209656 184.82698364 23.85209656 183.12698364 C23.66459656 177.81448364 23.66459656 177.81448364 23.85209656 173.12698364 C23.19209656 173.12698364 22.53209656 173.12698364 21.85209656 173.12698364 C19.85209656 170.12698364 19.85209656 170.12698364 19.85209656 167.12698364 C14.51751957 164.99279818 9.54869059 164.89333654 3.85600281 164.93167114 C2.33047791 164.93666626 0.804953 164.94166138 -0.76679993 164.94680786 C-2.68693909 164.96501587 -4.60707825 164.98322388 -6.58540344 165.00198364 C-12.71102844 165.04323364 -18.83665344 165.08448364 -25.14790344 165.12698364 C-25.14790344 151.92698364 -25.14790344 138.72698364 -25.14790344 125.12698364 C-20.10879699 124.49709534 -15.70341003 124.00164093 -10.71943665 123.98513794 C-8.9126519 123.97458626 -8.9126519 123.97458626 -7.06936646 123.96382141 C-5.79204147 123.95965714 -4.51471649 123.95549286 -3.19868469 123.95120239 C-0.46755703 123.92802318 2.26356281 123.90390665 4.99467468 123.87893677 C9.28061832 123.84371523 13.56626932 123.8144006 17.8523407 123.80105591 C22.0023521 123.78562306 26.1515246 123.74546746 30.30131531 123.70120239 C31.58471298 123.70311081 32.86811066 123.70501923 34.19039917 123.70698547 C35.38546585 123.69049454 36.58053253 123.6740036 37.81181335 123.65701294 C38.86023911 123.6511467 39.90866486 123.64528046 40.98886108 123.63923645 C47.12027393 122.5422839 49.59113055 118.97412953 50.85209656 113.12698364 C51.03803997 110.37139698 51.11802602 107.60781714 51.12675476 104.84597778 C51.13628677 103.18728165 51.14581879 101.52858551 51.15563965 99.81962585 C51.15472824 98.03515549 51.15381683 96.25068512 51.15287781 94.41213989 C51.15716293 92.57276352 51.16144806 90.73338715 51.16586304 88.83827209 C51.17160574 84.94891776 51.17210706 81.05955269 51.16777039 77.17019653 C51.16461071 71.21615301 51.18807183 65.26260635 51.21342468 59.30862427 C51.21569766 55.5306301 51.21640118 51.7526346 51.21537781 47.97463989 C51.22919243 45.30097069 51.22919243 45.30097069 51.24328613 42.57328796 C51.23705734 40.91143967 51.23082855 39.24959137 51.22441101 37.53738403 C51.22504044 36.07877457 51.22566986 34.6201651 51.22631836 33.11735535 C50.69653754 27.46823934 49.68253018 23.34727272 44.85209656 20.12698364 C44.85209656 19.13698364 44.85209656 18.14698364 44.85209656 17.12698364 C42.66822327 17.13483887 42.66822327 17.13483887 40.44023132 17.14285278 C34.9589552 17.16116379 29.4776817 17.17250953 23.99638367 17.18191528 C21.63895714 17.18689655 19.28153363 17.19368399 16.92411804 17.2024231 C3.52845609 17.25078289 -9.7816688 17.1663323 -23.14790344 16.12698364 C-23.46040344 10.68948364 -23.46040344 10.68948364 -23.14790344 5.12698364 C-21.49790344 4.79698364 -19.84790344 4.46698364 -18.14790344 4.12698364 C-18.47790344 3.46698364 -18.80790344 2.80698364 -19.14790344 2.12698364 C-17.51852844 1.98260864 -15.88915344 1.83823364 -14.21040344 1.68948364 C-8.91667025 1.10129107 -5.57213399 0.00134791 0 0 Z " fill="#15BFF9" transform="translate(241.1479034423828,46.873016357421875)"/>
<path d="M0 0 C3.38707361 1.69353681 2.25891178 4.77055207 2.26742554 8.32183838 C2.28022049 10.71899612 2.28022049 10.71899612 2.29327393 13.1645813 C2.29236755 14.93590424 2.29146118 16.70722717 2.29052734 18.53222656 C2.29724457 20.38417633 2.30396179 22.2361261 2.31088257 24.14419556 C2.3266856 29.24406996 2.33324148 34.34378153 2.33451414 39.44366932 C2.33641021 43.70235397 2.34376545 47.96102291 2.35085833 52.21970153 C2.36717318 62.2773351 2.37202495 72.33493285 2.37060547 82.39257812 C2.3694073 92.75172278 2.39043705 103.11065797 2.4220928 113.46974969 C2.44830987 122.36757389 2.45897029 131.26533001 2.45769465 140.16319251 C2.45718605 145.47502214 2.46281077 150.78666629 2.48405075 156.09845734 C2.50714573 162.03739952 2.49787868 167.97605939 2.48583984 173.91503906 C2.49707886 175.66207123 2.50831787 177.40910339 2.51989746 179.20907593 C2.41721668 199.18400077 -3.00514473 216.7668243 -23 225 C-30.36911963 226.58363748 -37.27599697 227.24947722 -44.80462646 227.24723816 C-46.3487735 227.25085978 -46.3487735 227.25085978 -47.92411542 227.25455457 C-51.34238027 227.26014962 -54.76045474 227.25156038 -58.17871094 227.24291992 C-60.6418513 227.24399382 -63.10499142 227.24593411 -65.56813049 227.24867249 C-72.23511699 227.25350568 -78.90203619 227.2458848 -85.56901455 227.23571944 C-92.55245826 227.22691638 -99.53590001 227.22869681 -106.51934814 227.2290802 C-118.24093752 227.22814474 -129.96250095 227.2194755 -141.68408203 227.20581055 C-155.23470707 227.19007166 -168.78530374 227.18481303 -182.33593726 227.1855461 C-196.77052416 227.18622152 -211.20510012 227.17928213 -225.63968372 227.1700995 C-229.79709985 227.16796863 -233.95451422 227.16725839 -238.11193085 227.16686058 C-244.64220149 227.16585604 -251.17244832 227.15975022 -257.70271111 227.14969444 C-260.09926393 227.14677417 -262.4958195 227.14554312 -264.89237404 227.14612198 C-268.1627107 227.14661298 -271.43298073 227.14095395 -274.70330811 227.13371277 C-277.44863924 227.131199 -277.44863924 227.131199 -280.24943161 227.12863445 C-291.58921032 226.82157936 -291.58921032 226.82157936 -293 224 C-291.28039062 223.52691406 -289.56078125 223.05382812 -287.7890625 222.56640625 C-222.23158793 204.32066689 -160.59877067 174.95347445 -109 130 C-107.34484375 128.60394531 -107.34484375 128.60394531 -105.65625 127.1796875 C-89.85595609 113.83484467 -74.47394801 99.71960601 -61 84 C-59.54435215 82.39339608 -58.08583884 80.78938535 -56.625 79.1875 C-36.26090151 56.5607239 -19.21650641 31.45183372 -3.50537109 5.45751953 C-2.37600278 3.61382484 -1.19931812 1.79897719 0 0 Z " fill="#969696" transform="translate(500,136)"/>
<path d="M0 0 C1.90977127 0.00068733 1.90977127 0.00068733 3.85812378 0.00138855 C6.54621311 0.00440684 9.23430075 0.01228045 11.92236328 0.0246582 C16.04596115 0.04293008 20.1693346 0.04516771 24.29296875 0.04492188 C26.90364778 0.04983665 29.51432529 0.0556648 32.125 0.0625 C33.36251007 0.06361282 34.60002014 0.06472565 35.87503052 0.06587219 C47.66419397 0.13156977 47.66419397 0.13156977 50.9296875 7.23046875 C51.9196875 8.71546875 51.9196875 8.71546875 52.9296875 10.23046875 C53.2350769 12.96949768 53.2350769 12.96949768 53.31201172 16.32250977 C53.3611824 18.20444786 53.3611824 18.20444786 53.41134644 20.12440491 C53.44749557 22.1588401 53.44749557 22.1588401 53.484375 24.234375 C53.51322784 25.62373764 53.54208069 27.01310028 53.57180786 28.44456482 C53.62891647 31.3840894 53.68068093 34.32372189 53.72753906 37.26342773 C53.80444207 41.77855913 53.91319153 46.29221588 54.0234375 50.80664062 C54.07487247 53.65751747 54.12441593 56.5084292 54.171875 59.359375 C54.22624222 61.39684654 54.22624222 61.39684654 54.28170776 63.47547913 C54.38726696 73.00167902 54.38726696 73.00167902 49.9296875 75.23046875 C49.5996875 75.89046875 49.2696875 76.55046875 48.9296875 77.23046875 C35.34425644 79.67240699 21.43261377 79.53765347 7.6796875 79.48046875 C5.77316406 79.48820312 3.86664063 79.4959375 1.90234375 79.50390625 C0.07058594 79.50132812 -1.76117188 79.49875 -3.6484375 79.49609375 C-5.29231445 79.49383789 -6.93619141 79.49158203 -8.62988281 79.48925781 C-19.25040085 78.87029206 -19.25040085 78.87029206 -22.0703125 73.23046875 C-23.30390004 65.58222598 -23.16917718 57.95289876 -23.0703125 50.23046875 C-22.4103125 50.23046875 -21.7503125 50.23046875 -21.0703125 50.23046875 C-21.0703125 38.02046875 -21.0703125 25.81046875 -21.0703125 13.23046875 C-20.4103125 13.23046875 -19.7503125 13.23046875 -19.0703125 13.23046875 C-19.4003125 11.58046875 -19.7303125 9.93046875 -20.0703125 8.23046875 C-18.06898084 -1.9763227 -8.51049041 -0.04957776 0 0 Z " fill="#15C0F9" transform="translate(226.0703125,77.76953125)"/>
<path d="M0 0 C1.05785202 -0.00335861 2.11570404 -0.00671722 3.20561218 -0.01017761 C6.69071641 -0.01964963 10.17577239 -0.02162884 13.66088867 -0.02270508 C16.09315511 -0.02592025 18.52542135 -0.02928452 20.95768738 -0.03279114 C26.05252531 -0.03877302 31.1473463 -0.040632 36.2421875 -0.04003906 C42.75519388 -0.03993749 49.26809113 -0.05358878 55.78107166 -0.07081127 C60.80409744 -0.08195579 65.82709703 -0.08395751 70.8501339 -0.08342934 C73.25058048 -0.08460579 75.65102782 -0.08900867 78.05146217 -0.0967617 C81.41589526 -0.10661107 84.78009401 -0.10366397 88.14453125 -0.09765625 C90.05534988 -0.09908127 91.96616852 -0.10050629 93.93489075 -0.10197449 C112.0064632 0.73606551 121.46225754 9.85375691 128.26635742 26.14526367 C128.95385742 30.70776367 128.95385742 30.70776367 128.26635742 34.14526367 C123.65319769 35.99052756 121.52966063 36.39608194 116.75186157 36.39923096 C115.43408218 36.40487061 114.1163028 36.41051025 112.7585907 36.4163208 C111.31949844 36.41227234 109.88040619 36.40822388 108.39770508 36.40405273 C106.87690842 36.40755737 105.35611176 36.41106201 103.78923035 36.41467285 C98.75291401 36.42348822 93.71673773 36.41764091 88.68041992 36.41088867 C85.18435641 36.41223551 81.68829309 36.4141762 78.19223022 36.41668701 C70.86015034 36.41963813 63.52811915 36.41534142 56.19604492 36.40600586 C46.79498728 36.39461988 37.39404393 36.40116563 27.99299049 36.41315079 C20.77144509 36.42037681 13.5499268 36.41807786 6.32838058 36.4128952 C2.86205405 36.41156033 -0.60427494 36.41320074 -4.0705986 36.41785431 C-8.91586577 36.42293063 -13.76094779 36.41519283 -18.60620117 36.40405273 C-20.04124496 36.4081012 -21.47628876 36.41214966 -22.95481873 36.4163208 C-24.93994728 36.40786133 -24.93994728 36.40786133 -26.96517944 36.39923096 C-28.11000479 36.39847691 -29.25483013 36.39772285 -30.43434715 36.39694595 C-34.07828963 36.11897274 -37.26033979 35.25615199 -40.73364258 34.14526367 C-40.13097928 20.88667106 -30.23863032 5.71057666 -17.73364258 1.14526367 C-11.81399286 0.02732725 -6.01435668 0.01201275 0 0 Z " fill="#979797" transform="translate(246.733642578125,382.854736328125)"/>
<path d="M0 0 C1.79308594 -0.00128906 3.58617187 -0.00257813 5.43359375 -0.00390625 C8.24310547 0.00189453 8.24310547 0.00189453 11.109375 0.0078125 C13.89568359 0.00201172 13.89568359 0.00201172 16.73828125 -0.00390625 C19.43564453 -0.00197266 19.43564453 -0.00197266 22.1875 0 C24.64558105 0.00169189 24.64558105 0.00169189 27.15332031 0.00341797 C40.47785904 0.36978057 40.47785904 0.36978057 42.859375 5.1328125 C43.849375 5.4628125 44.839375 5.7928125 45.859375 6.1328125 C46.27587891 10.32958984 46.27587891 10.32958984 46.3359375 15.96875 C46.35151703 16.95904205 46.36709656 17.94933411 46.38314819 18.96963501 C46.43086884 22.14901892 46.45848537 25.32818202 46.484375 28.5078125 C46.52084962 31.68014473 46.5615023 34.85235147 46.60702515 38.02456665 C46.64674946 40.90869207 46.67447123 43.79297526 46.70166016 46.67724609 C46.64304328 50.95460078 46.64304328 50.95460078 47.859375 54.1328125 C46.62244194 60.31747778 46.30510813 59.51067923 40.859375 61.1328125 C40.859375 62.1228125 40.859375 63.1128125 40.859375 64.1328125 C33.35947548 66.00778738 25.42214717 65.35865531 17.71606445 65.37304688 C14.56890357 65.38274462 11.42239811 65.4137759 8.27539062 65.4453125 C6.26562886 65.45184385 4.25586245 65.4570938 2.24609375 65.4609375 C-0.48861206 65.47495605 -0.48861206 65.47495605 -3.27856445 65.48925781 C-9.33419008 65.04531037 -13.67204485 64.33568273 -17.140625 59.1328125 C-18.59431993 48.62780953 -18.26255354 37.78711041 -18.328125 27.1953125 C-18.34117676 25.96377441 -18.35422852 24.73223633 -18.36767578 23.46337891 C-18.38480999 5.37699749 -18.38480999 5.37699749 -14.140625 1.1328125 C-9.23354943 0.15139739 -4.99467642 0.00344732 0 0 Z " fill="#15C0FA" transform="translate(156.140625,159.8671875)"/>
<path d="M0 0 C1.88525391 0.01933594 1.88525391 0.01933594 3.80859375 0.0390625 C5.12730469 0.07257812 6.44601563 0.10609375 7.8046875 0.140625 C9.13113281 0.15867188 10.45757812 0.17671875 11.82421875 0.1953125 C15.11008753 0.24259119 18.39453503 0.30848039 21.6796875 0.390625 C21.69950684 1.26275635 21.71932617 2.1348877 21.73974609 3.03344727 C21.83534074 7.00696294 21.94488149 10.9799777 22.0546875 14.953125 C22.085625 16.32533203 22.1165625 17.69753906 22.1484375 19.11132812 C22.18710938 20.44228516 22.22578125 21.77324219 22.265625 23.14453125 C22.31275635 24.97479858 22.31275635 24.97479858 22.36083984 26.84204102 C22.95537336 33.45884395 23.8986848 36.6096223 28.6796875 41.390625 C33.74369719 42.40342694 38.16175157 42.50066609 43.3203125 42.49609375 C46.13175781 42.51833008 46.13175781 42.51833008 49 42.54101562 C52.9686757 42.56585253 56.93752223 42.57090729 60.90625 42.55664062 C62.77539062 42.57791016 64.64453125 42.59917969 66.5703125 42.62109375 C68.29282227 42.62520264 70.01533203 42.62931152 71.79003906 42.63354492 C75.6796875 43.390625 75.6796875 43.390625 76.73852539 45.76171875 C76.71910889 46.95925781 76.69969238 48.15679687 76.6796875 49.390625 C76.72762451 51.03393799 76.77556152 52.67725098 76.82495117 54.37036133 C76.86536699 64.78764609 76.86536699 64.78764609 76.86499023 69.86889648 C76.86719134 73.20894846 76.88541022 76.54867764 76.90429688 79.88867188 C76.90722823 81.99999887 76.90921475 84.11132743 76.91015625 86.22265625 C76.91426514 88.14827393 76.91837402 90.0738916 76.92260742 92.05786133 C76.6796875 96.390625 76.6796875 96.390625 74.6796875 97.390625 C72.01447412 97.48915758 69.34672085 97.52141176 66.6796875 97.5234375 C64.2665625 97.52537109 64.2665625 97.52537109 61.8046875 97.52734375 C60.1134375 97.52347656 58.4221875 97.51960938 56.6796875 97.515625 C54.9884375 97.51949219 53.2971875 97.52335937 51.5546875 97.52734375 C49.9459375 97.52605469 48.3371875 97.52476562 46.6796875 97.5234375 C44.4521875 97.52174561 44.4521875 97.52174561 42.1796875 97.52001953 C38.6796875 97.390625 38.6796875 97.390625 36.6796875 96.390625 C36.40844727 93.48242188 36.40844727 93.48242188 36.37109375 89.609375 C36.34595703 88.20945312 36.32082031 86.80953125 36.29492188 85.3671875 C36.26013422 82.41410205 36.22880841 79.46097353 36.20117188 76.5078125 C36.57037459 61.57412556 36.57037459 61.57412556 26.6796875 52.390625 C22.71814711 51.89017845 22.71814711 51.89017845 18.4375 51.87890625 C16.87773437 51.84345703 15.31796875 51.80800781 13.7109375 51.77148438 C12.091875 51.74892578 10.4728125 51.72636719 8.8046875 51.703125 C7.16242188 51.66896484 5.52015625 51.63480469 3.828125 51.59960938 C-0.22128604 51.51720857 -4.27048254 51.44802666 -8.3203125 51.390625 C-8.36974019 44.77035559 -8.40604545 38.15018388 -8.43017578 31.52978516 C-8.44023503 29.27748748 -8.45388396 27.02520286 -8.47119141 24.77294922 C-8.49544281 21.53610002 -8.5067964 18.29942345 -8.515625 15.0625 C-8.52609863 13.1144043 -8.53657227 11.16630859 -8.54736328 9.15917969 C-8.19849774 1.83225316 -7.19944857 -0.12971979 0 0 Z " fill="#989898" transform="translate(114.3203125,47.609375)"/>
<path d="M0 0 C1.6514502 -0.00338379 3.30290039 -0.00676758 5.00439453 -0.01025391 C7.68628906 -0.01605469 7.68628906 -0.01605469 10.42236328 -0.02197266 C12.30826172 -0.01037109 14.19416016 0.00123047 16.13720703 0.01318359 C18.01537109 0.00158203 19.89353516 -0.01001953 21.82861328 -0.02197266 C23.61912109 -0.01810547 25.40962891 -0.01423828 27.25439453 -0.01025391 C28.90810059 -0.00687012 30.56180664 -0.00348633 32.265625 0 C37.2231464 0.48151857 38.6842538 1.65432389 40.26220703 6.38818359 C40.92220703 6.71818359 41.58220703 7.04818359 42.26220703 7.38818359 C45.0485624 16.23490802 44.59222934 25.08149141 44.57470703 34.26318359 C44.59082031 35.97505859 44.60693359 37.68693359 44.62353516 39.45068359 C44.62417969 41.07748047 44.62482422 42.70427734 44.62548828 44.38037109 C44.62846924 45.86907715 44.6314502 47.3577832 44.63452148 48.89160156 C44.26220703 52.38818359 44.26220703 52.38818359 41.26220703 54.38818359 C40.60220703 55.70818359 39.94220703 57.02818359 39.26220703 58.38818359 C31.67721674 61.42217971 24.17158503 60.7569624 16.07470703 60.76318359 C14.41632812 60.78767578 12.75794922 60.81216797 11.04931641 60.83740234 C-10.6859461 60.88946285 -10.6859461 60.88946285 -13.98388672 53.65454102 C-14.78289636 50.19276965 -14.8943424 47.32059087 -14.74951172 43.77490234 C-14.70246094 42.52644531 -14.65541016 41.27798828 -14.60693359 39.99169922 C-14.54699219 38.69941406 -14.48705078 37.40712891 -14.42529297 36.07568359 C-14.37695312 34.795 -14.32861328 33.51431641 -14.27880859 32.19482422 C-13.51566459 13.42534576 -13.51566459 13.42534576 -9.73779297 8.38818359 C-9.40779297 7.06818359 -9.07779297 5.74818359 -8.73779297 4.38818359 C-5.73779297 3.38818359 -5.73779297 3.38818359 -2.73779297 5.38818359 C-2.73779297 4.72818359 -2.73779297 4.06818359 -2.73779297 3.38818359 C-3.39779297 3.38818359 -4.05779297 3.38818359 -4.73779297 3.38818359 C-3.73779297 0.38818359 -3.73779297 0.38818359 0 0 Z " fill="#15C0FA" transform="translate(48.73779296875,50.61181640625)"/>
<path d="M0 0 C2.76890625 0.07927734 2.76890625 0.07927734 5.59375 0.16015625 C21.46271157 0.73135578 21.46271157 0.73135578 26 3 C26.75 6.625 26.75 6.625 27 10 C26.34 10 25.68 10 25 10 C25.48823242 10.84240234 25.97646484 11.68480469 26.47949219 12.55273438 C28.17818051 16.40396737 28.3599721 18.96780784 28.328125 23.15625 C28.32296875 24.50847656 28.3178125 25.86070312 28.3125 27.25390625 C28.291875 28.65511719 28.27125 30.05632812 28.25 31.5 C28.24484375 32.90121094 28.2396875 34.30242187 28.234375 35.74609375 C28.18959569 41.61778108 28.10359495 47.21884329 27 53 C25.68 53 24.36 53 23 53 C23 53.99 23 54.98 23 56 C16.73289434 57.11690992 10.53130882 57.14856833 4.1875 57.125 C3.15818359 57.12886719 2.12886719 57.13273437 1.06835938 57.13671875 C-5.3426716 57.12860865 -11.67492484 57.09152069 -18 56 C-18.33 54.68 -18.66 53.36 -19 52 C-20.65 52 -22.3 52 -24 52 C-29.95564963 40.08870075 -29.92173531 16.01539751 -22.8125 4.4375 C-16.20957438 -1.28503553 -8.29160882 -0.26109074 0 0 Z " fill="#16C0F9" transform="translate(72,263)"/>
<path d="M0 0 C5.47975446 0.08130466 10.95843101 0.19411816 16.4375 0.3125 C18.7568457 0.34633789 18.7568457 0.34633789 21.12304688 0.38085938 C39.82128906 0.82128906 39.82128906 0.82128906 46 7 C46 8.32 46 9.64 46 11 C46.66 11 47.32 11 48 11 C48.05846673 15.97911667 48.09375348 20.95814396 48.125 25.9375 C48.14175781 27.34064453 48.15851563 28.74378906 48.17578125 30.18945312 C48.26638083 49.44186318 48.26638083 49.44186318 43 53.0625 C39 54 39 54 34.58984375 53.9921875 C27.02018603 54.00276704 19.55295199 54.70852602 12.01757812 55.37695312 C3.31322005 56.10440668 3.31322005 56.10440668 0 55 C0 54.34 0 53.68 0 53 C-0.99 53 -1.98 53 -3 53 C-5.4173288 46.95667799 -5.49609079 41.41046839 -5.6875 35 C-5.73455078 33.84371094 -5.78160156 32.68742187 -5.83007812 31.49609375 C-6.09993231 23.57742189 -5.72868674 15.88954067 -5 8 C-4.01 8 -3.02 8 -2 8 C-2 8.66 -2 9.32 -2 10 C-1.01 10 -0.02 10 1 10 C0.5 5.5 0.5 5.5 -4 5 C-3.34 5 -2.68 5 -2 5 C-2 4.34 -2 3.68 -2 3 C-1.34 3 -0.68 3 0 3 C0 2.01 0 1.02 0 0 Z " fill="#15C0FA" transform="translate(156,22)"/>
<path d="M0 0 C12.16161156 4.81875175 11.18155833 10.96172765 11.1875 22.75 C11.19974609 24.01328125 11.21199219 25.2765625 11.22460938 26.578125 C11.24956116 42.41419017 11.24956116 42.41419017 6.3125 45.89453125 C0.33155802 47.89052958 -5.74180616 47.79968924 -12 48 C-13.25683594 48.05285156 -14.51367188 48.10570312 -15.80859375 48.16015625 C-30.4766938 48.5233062 -30.4766938 48.5233062 -35 44 C-35.31327237 38.44362848 -35.27858632 32.87660378 -35.3125 27.3125 C-35.34150391 25.74564453 -35.37050781 24.17878906 -35.40039062 22.56445312 C-35.40876953 21.05431641 -35.41714844 19.54417969 -35.42578125 17.98828125 C-35.44036377 16.60165283 -35.45494629 15.21502441 -35.4699707 13.78637695 C-34.93354234 9.46457563 -33.83309024 7.27865138 -31 4 C-30.01 4 -29.02 4 -28 4 C-27.00871094 3.67257813 -26.01742187 3.34515625 -24.99609375 3.0078125 C-19.92266473 1.72829668 -15.28836652 1.8100824 -10.0625 1.875 C-7.23365234 1.90207031 -7.23365234 1.90207031 -4.34765625 1.9296875 C-2.91292969 1.95289063 -1.47820312 1.97609375 0 2 C0 1.34 0 0.68 0 0 Z " fill="#17C0F9" transform="translate(240,226)"/>
<path d="M0 0 C0 1.32 0 2.64 0 4 C0.66 4.33 1.32 4.66 2 5 C2.56545065 10.08091682 2.46372091 15.20395066 2.5 20.3125 C2.54125 21.75302734 2.5825 23.19355469 2.625 24.67773438 C2.6353125 26.05896484 2.645625 27.44019531 2.65625 28.86328125 C2.68428711 30.77040894 2.68428711 30.77040894 2.71289062 32.71606445 C1.46505732 38.46421714 -2.66688166 39.66672042 -8 41 C-36.2729141 42.4541718 -36.2729141 42.4541718 -40 35 C-40.23306373 31.79465441 -40.41268536 28.58531379 -40.5625 25.375 C-40.64628906 23.62960938 -40.73007813 21.88421875 -40.81640625 20.0859375 C-40.87699219 18.73757812 -40.93757813 17.38921875 -41 16 C-40.34 16 -39.68 16 -39 16 C-39 14.02 -39 12.04 -39 10 C-38.01 9.01 -37.02 8.02 -36 7 C-36.33 5.35 -36.66 3.7 -37 2 C-35.68 2 -34.36 2 -33 2 C-33 1.01 -33 0.02 -33 -1 C-24.83422497 -5.08288751 -7.18649345 -5.38987009 0 0 Z " fill="#15BFF9" transform="translate(134,116)"/>
<path d="M0 0 C1.54816406 0.01546875 3.09632812 0.0309375 4.69140625 0.046875 C8.4375 0.25 8.4375 0.25 9.4375 1.25 C9.69470928 7.1619229 9.62273821 13.08315586 9.625 19 C9.63724609 20.670625 9.64949219 22.34125 9.66210938 24.0625 C9.66404297 25.66609375 9.66597656 27.2696875 9.66796875 28.921875 C9.67207764 30.3975293 9.67618652 31.87318359 9.68041992 33.39355469 C9.4375 37.25 9.4375 37.25 7.4375 42.25 C2.67578125 42.88671875 2.67578125 42.88671875 -3.25 42.9375 C-14.96087412 42.64658754 -14.96087412 42.64658754 -24.5625 48.25 C-27.24985449 58.70082303 -27.18370753 69.51422384 -27.5625 80.25 C-39.1875 80.5 -39.1875 80.5 -42.5625 78.25 C-44.04523484 70.52103159 -47.6206176 45.3081176 -41.5625 39.25 C-36.27849933 39.00123275 -30.9950024 38.86504831 -25.70703125 38.7265625 C-17.93070081 38.00620387 -15.60858481 36.99347468 -11.5625 30.25 C-11.09547722 27.2119906 -11.09547722 27.2119906 -11.12109375 23.9609375 C-11.09466797 22.77242187 -11.06824219 21.58390625 -11.04101562 20.359375 C-11.02748047 19.12703125 -11.01394531 17.8946875 -11 16.625 C-10.96560929 14.17434377 -10.92303046 11.72378467 -10.87109375 9.2734375 C-10.85876709 8.18981934 -10.84644043 7.10620117 -10.83374023 5.98974609 C-10.13564372 -1.06159417 -5.97841438 -0.09972334 0 0 Z " fill="#979898" transform="translate(116.5625,170.75)"/>
<path d="M0 0 C1.36769531 -0.02578125 2.73539063 -0.0515625 4.14453125 -0.078125 C11.63700767 0.52996004 16.67789948 2.72119844 19.1875 10.25 C19.33615409 13.35172486 19.40881499 16.45734746 19.4375 19.5625 C19.46328125 21.22925781 19.4890625 22.89601562 19.515625 24.61328125 C19.02864989 31.4947034 17.01503986 35.50372438 11.1875 39.25 C1.83400455 41.12069909 -8.91992366 41.89794752 -16.3125 34.875 C-20.83162803 26.96652595 -20.60491384 12.95209367 -15.8125 5.25 C-10.54623194 -0.01626806 -7.14976998 0.08040978 0 0 Z " fill="#1BBFF6" transform="translate(74.8125,157.75)"/>
<path d="M0 0 C1.35222656 0.00386719 2.70445313 0.00773438 4.09765625 0.01171875 C11.16299279 0.56515813 13.16139461 1.01899102 16.9375 7.3125 C17.22840923 11.21410619 17.35627238 14.91675785 17.3125 18.8125 C17.32410156 19.84503906 17.33570313 20.87757813 17.34765625 21.94140625 C17.32110505 28.80046698 17.10866217 33.60946846 10.5625 37.125 C-0.38986077 39.93709263 -9.81153452 39.56346548 -18.0625 31.3125 C-19.12512406 27.06200376 -19.30196864 23.37803785 -19.375 19 C-19.41238281 17.53949219 -19.44976562 16.07898438 -19.48828125 14.57421875 C-18.30009753 2.68148077 -10.95992671 -0.13608314 0 0 Z " fill="#1ABFF5" transform="translate(29.0625,225.6875)"/>
<path d="M0 0 C2.64947471 5.47796798 2.30055721 11.14564178 2.3125 17.125 C2.32925781 19.06632812 2.34601563 21.00765625 2.36328125 23.0078125 C1.96282322 28.51088095 1.27858527 31.05058947 -4 33.25 C-17.26315789 35.73684211 -17.26315789 35.73684211 -20 33 C-21.98 33 -23.96 33 -26 33 C-34.37977409 27.97213554 -33.50928962 19.13563182 -32.5 10 C-29.89436022 -3.91915962 -11.17531428 -5.46348698 0 0 Z " fill="#18BFF7" transform="translate(134,228)"/>
<path d="M0 0 C1.11761719 0.00451172 2.23523438 0.00902344 3.38671875 0.01367188 C6.13283566 0.02540742 8.87892485 0.04334134 11.625 0.0625 C11.625 0.7225 11.625 1.3825 11.625 2.0625 C9.47291016 2.13597656 9.47291016 2.13597656 7.27734375 2.2109375 C4.44849609 2.32308594 4.44849609 2.32308594 1.5625 2.4375 C-1.23927734 2.54191406 -1.23927734 2.54191406 -4.09765625 2.6484375 C-14.74096182 3.45406277 -14.74096182 3.45406277 -22.375 10.0625 C-22.53043889 12.45821802 -22.62526881 14.85796835 -22.69140625 17.2578125 C-22.73330078 18.69511719 -22.77519531 20.13242188 -22.81835938 21.61328125 C-22.85767578 23.12277344 -22.89699219 24.63226563 -22.9375 26.1875 C-22.98068359 27.70472656 -23.02386719 29.22195312 -23.06835938 30.78515625 C-23.17474669 34.54417454 -23.27677085 38.30326109 -23.375 42.0625 C-23.705 42.0625 -24.035 42.0625 -24.375 42.0625 C-25.5723284 36.075858 -25.59814177 30.26417451 -25.625 24.1875 C-25.645625 23.02863281 -25.66625 21.86976563 -25.6875 20.67578125 C-25.72597937 12.25841848 -25.52219892 6.42289919 -18.375 1.0625 C-12.32959266 -0.36521466 -6.17543427 -0.04727953 0 0 Z " fill="#40BEE9" transform="translate(228.375,225.9375)"/>
<path d="M0 0 C1.17949219 0.01804688 2.35898438 0.03609375 3.57421875 0.0546875 C4.92966797 0.08949219 4.92966797 0.08949219 6.3125 0.125 C6.3125 0.455 6.3125 0.785 6.3125 1.125 C1.8575 1.62 1.8575 1.62 -2.6875 2.125 C-2.3575 2.785 -2.0275 3.445 -1.6875 4.125 C-3.6675 4.125 -5.6475 4.125 -7.6875 4.125 C-7.6875 7.755 -7.6875 11.385 -7.6875 15.125 C-6.768479 15.11919922 -5.84945801 15.11339844 -4.90258789 15.10742188 C8.69488694 15.06157573 22.28139346 15.34166121 35.875 15.625 C38.25455411 15.67333393 40.63411139 15.72151211 43.01367188 15.76953125 C48.77998597 15.88622805 54.54625327 16.00502276 60.3125 16.125 C60.3125 16.785 60.3125 17.445 60.3125 18.125 C37.2125 17.795 14.1125 17.465 -9.6875 17.125 C-9.6875 -0.19183168 -9.6875 -0.19183168 0 0 Z " fill="#37C0ED" transform="translate(225.6875,47.875)"/>
<path d="M0 0 C0 3 0 3 -3 6 C-9.96209352 7.80370573 -16.51607317 8.25669262 -23.6875 8.265625 C-24.67065186 8.26753845 -25.65380371 8.2694519 -26.66674805 8.27142334 C-28.73063414 8.27277502 -30.79452903 8.2691503 -32.85839844 8.26074219 C-35.99173338 8.25002827 -39.12449509 8.2606725 -42.2578125 8.2734375 C-44.27604291 8.27211572 -46.29427298 8.26955296 -48.3125 8.265625 C-50.12363281 8.26336914 -51.93476563 8.26111328 -53.80078125 8.25878906 C-59.04724037 7.99764863 -63.88382876 7.16140316 -69 6 C-64.4493856 4.8623464 -60.56600414 4.90467962 -55.87109375 4.9375 C-53.10895508 4.94910156 -53.10895508 4.94910156 -50.29101562 4.9609375 C-46.447263 4.98658817 -42.60351287 5.01261773 -38.75976562 5.0390625 C-20.82884733 5.40822511 -20.82884733 5.40822511 -3 4 C-2.67 3.01 -2.34 2.02 -2 1 C-1.34 0.67 -0.68 0.34 0 0 Z " fill="#48C1E7" transform="translate(278,151)"/>
<path d="M0 0 C0.33 0.66 0.66 1.32 1 2 C0.34 2 -0.32 2 -1 2 C-1.23570226 4.47140452 -1.23570226 4.47140452 2 7 C2 7.66 2 8.32 2 9 C1.01 9 0.02 9 -1 9 C-1 8.34 -1 7.68 -1 7 C-1.99 7 -2.98 7 -4 7 C-4.10698056 16.20032793 -3.89824251 25.36939856 -3.5625 34.5625 C-3.52326416 35.70444824 -3.48402832 36.84639648 -3.44360352 38.02294922 C-3.25869007 42.81082338 -2.9415738 47.29213098 -2 52 C-1.01 52 -0.02 52 1 52 C1 52.66 1 53.32 1 54 C-4.73784993 52.56553752 -4.48145121 50.58478334 -6 45 C-6.50362389 40.56451242 -6.64688822 36.14831211 -6.75 31.6875 C-6.79253906 30.52798828 -6.83507812 29.36847656 -6.87890625 28.17382812 C-7.61847228 3.80923614 -7.61847228 3.80923614 0 0 Z " fill="#38BAE3" transform="translate(155,23)"/>
<path d="M0 0 C4.71137606 2.35568803 3.21042748 10.42293472 3.25 14.9375 C3.27578125 16.69964844 3.3015625 18.46179688 3.328125 20.27734375 C2.88498049 26.65545938 1.07726761 29.1920493 -4 33 C-12.93527643 34.78705529 -20.54767395 34.54452383 -29 31 C-29.33 30.34 -29.66 29.68 -30 29 C-28.535625 29.37125 -27.07125 29.7425 -25.5625 30.125 C-23.3040625 30.558125 -23.3040625 30.558125 -21 31 C-20.67 30.34 -20.34 29.68 -20 29 C-20 29.99 -20 30.98 -20 32 C-8.60356321 31.91851372 -8.60356321 31.91851372 0 26 C0.14430127 21.58149507 0.18590571 17.2281641 0.125 12.8125 C0.11597656 11.58595703 0.10695312 10.35941406 0.09765625 9.09570312 C0.07406104 6.06371915 0.03818967 3.03183527 0 0 Z " fill="#3EBDEB" transform="translate(135,230)"/>
<path d="M0 0 C1.80984375 -0.01224609 3.6196875 -0.02449219 5.484375 -0.03710938 C7.2375 -0.03904297 8.990625 -0.04097656 10.796875 -0.04296875 C13.19211426 -0.04913208 13.19211426 -0.04913208 15.63574219 -0.05541992 C28.46627496 0.62004993 28.46627496 0.62004993 31.25 6.1875 C29.93 5.5275 28.61 4.8675 27.25 4.1875 C20.65777655 3.18748286 14.18688949 3.07087069 7.52734375 3.08984375 C6.54125626 3.0912587 5.55516876 3.09267365 4.53919983 3.09413147 C1.42193432 3.0996823 -1.69525658 3.1122254 -4.8125 3.125 C-6.93945208 3.13002136 -9.0664053 3.13458315 -11.19335938 3.13867188 C-16.37893006 3.14963557 -21.56445774 3.16686576 -26.75 3.1875 C-21.06349149 -2.49900851 -7.47528578 0.00263958 0 0 Z " fill="#39BCE8" transform="translate(169.75,157.8125)"/>
<path d="M0 0 C1.65 0 3.3 0 5 0 C5.33 1.32 5.66 2.64 6 4 C10.08569033 4.56267373 10.08569033 4.56267373 15.06640625 4.390625 C16.91298828 4.37773437 18.75957031 4.36484375 20.66210938 4.3515625 C22.60923828 4.31804687 24.55636719 4.28453125 26.5625 4.25 C28.51349609 4.23195313 30.46449219 4.21390625 32.47460938 4.1953125 C37.31688481 4.14795528 42.15820706 4.08200548 47 4 C47 3.01 47 2.02 47 1 C48.32 1 49.64 1 51 1 C51 4.52857821 47.97189275 4.77940119 45 6 C38.53599849 7.06533655 32.16826262 7.16589081 25.625 7.1875 C22.70527344 7.20876953 22.70527344 7.20876953 19.7265625 7.23046875 C3.81532806 6.59011211 3.81532806 6.59011211 0 0 Z " fill="#41C3EB" transform="translate(48,315)"/>
<path d="M0 0 C-11.24966524 8.37580118 -23.01856285 15.73740579 -35 23 C-35.92232422 23.58072266 -36.84464844 24.16144531 -37.79492188 24.75976562 C-44.78243924 29.10878038 -44.78243924 29.10878038 -47 28 C-44.47642594 24.21463891 -42.12954178 23.73875443 -38 22 C-37.01 21.01 -36.02 20.02 -35 19 C-33.453125 18.7525 -33.453125 18.7525 -31.875 18.5 C-28.63454805 18.37109599 -28.63454805 18.37109599 -28 15 C-27.01 15 -26.02 15 -25 15 C-25 14.34 -25 13.68 -25 13 C-23.68 13 -22.36 13 -21 13 C-21 11.68 -21 10.36 -21 9 C-18 8 -18 8 -14 7 C-13.67 6.34 -13.34 5.68 -13 5 C-11.68 5 -10.36 5 -9 5 C-9 4.01 -9 3.02 -9 2 C-3.76744186 -1.25581395 -3.76744186 -1.25581395 0 0 Z " fill="#45C0E8" transform="translate(329,282)"/>
<path d="M0 0 C0 3 0 3 -3 6 C-12.16025892 8.30737 -21.15675227 8.3006366 -30.5625 8.25 C-32.72329102 8.26160156 -32.72329102 8.26160156 -34.92773438 8.2734375 C-55.88247937 8.23504127 -55.88247937 8.23504127 -58 4 C-55.525 4.495 -55.525 4.495 -53 5 C-49.25768731 5.08386792 -45.53476942 5.11611929 -41.79296875 5.09765625 C-40.17217155 5.09553383 -40.17217155 5.09553383 -38.51863098 5.09336853 C-35.07489224 5.0877808 -31.63121902 5.0752305 -28.1875 5.0625 C-25.84961032 5.05748342 -23.51171961 5.05292079 -21.17382812 5.04882812 C-15.44919358 5.03781538 -9.7246079 5.02055912 -4 5 C-4 4.01 -4 3.02 -4 2 C-2.68 1.34 -1.36 0.68 0 0 Z " fill="#48BEE4" transform="translate(201,219)"/>
<path d="M0 0 C-0.33 0.99 -0.66 1.98 -1 3 C-0.34 3 0.32 3 1 3 C1 3.66 1 4.32 1 5 C-1.97 4.505 -1.97 4.505 -5 4 C-5.33 5.65 -5.66 7.3 -6 9 C-6.99 10.485 -6.99 10.485 -8 12 C-9.2529133 19.95724405 -9.32081777 28.02359435 -9.5625 36.0625 C-9.60568359 37.40505859 -9.64886719 38.74761719 -9.69335938 40.13085938 C-9.7987211 43.42048671 -9.90084952 46.71018059 -10 50 C-10.33 50 -10.66 50 -11 50 C-11.11621629 43.31264621 -11.1872645 36.62555253 -11.25 29.9375 C-11.28351562 28.04064453 -11.31703125 26.14378906 -11.3515625 24.18945312 C-11.36445312 22.36220703 -11.37734375 20.53496094 -11.390625 18.65234375 C-11.41157227 16.97132568 -11.43251953 15.29030762 -11.45410156 13.55834961 C-10.68278339 5.81572506 -8.14031522 0 0 0 Z " fill="#31B8E9" transform="translate(45,51)"/>
<path d="M0 0 C5.58375412 7.4450055 4.18379086 15.85492452 4.1875 24.8125 C4.19974609 26.35744141 4.21199219 27.90238281 4.22460938 29.49414062 C4.22654297 30.98751953 4.22847656 32.48089844 4.23046875 34.01953125 C4.23457764 35.38182861 4.23868652 36.74412598 4.24291992 38.14770508 C3.99700943 42.04742536 3.28616401 45.31707101 2 49 C1.67 49 1.34 49 1 49 C1.01047363 47.91058105 1.02094727 46.82116211 1.03173828 45.69873047 C1.07334079 40.75751049 1.09934029 35.81632741 1.125 30.875 C1.14175781 29.16054688 1.15851563 27.44609375 1.17578125 25.6796875 C1.18222656 24.0296875 1.18867187 22.3796875 1.1953125 20.6796875 C1.20578613 19.16101074 1.21625977 17.64233398 1.22705078 16.07763672 C1.01634894 12.29361295 0.29396642 9.52409535 -1 6 C-0.67 5.67 -0.34 5.34 0 5 C0 3.35 0 1.7 0 0 Z " fill="#35C0ED" transform="translate(98,267)"/>
<path d="M0 0 C1.64079242 3.28158484 0.51284131 6.46709319 0 10 C-0.66 10 -1.32 10 -2 10 C-1.96447021 10.83660156 -1.92894043 11.67320313 -1.89233398 12.53515625 C-1.73390384 16.35652309 -1.58561683 20.17822008 -1.4375 24 C-1.38142578 25.31613281 -1.32535156 26.63226563 -1.26757812 27.98828125 C-1.02400082 34.4511992 -0.89682653 40.59342221 -2 47 C-2.33 47 -2.66 47 -3 47 C-4.04006872 39.2868504 -4.18341033 31.70379238 -4.1875 23.9375 C-4.19974609 22.70966797 -4.21199219 21.48183594 -4.22460938 20.21679688 C-4.25040323 4.25040323 -4.25040323 4.25040323 0 0 Z " fill="#41BAE5" transform="translate(207,81)"/>
<path d="M0 0 C-29.17192148 31.72397383 -29.17192148 31.72397383 -36 34 C-36 32.68 -36 31.36 -36 30 C-34.68 29.67 -33.36 29.34 -32 29 C-31.34 27.68 -30.68 26.36 -30 25 C-29.01 25 -28.02 25 -27 25 C-26.34 23.68 -25.68 22.36 -25 21 C-23.68 20.34 -22.36 19.68 -21 19 C-17.46689221 15.73565477 -14.43832536 12.18983641 -11.4375 8.4375 C-3.69854015 -1.23284672 -3.69854015 -1.23284672 0 0 Z " fill="#46C0E6" transform="translate(404,215)"/>
<path d="M0 0 C0 0.33 0 0.66 0 1 C-14.355 1.99 -14.355 1.99 -29 3 C-29 3.99 -29 4.98 -29 6 C-29.99 6.33 -30.98 6.66 -32 7 C-32.33 7.99 -32.66 8.98 -33 10 C-32.34 10.33 -31.68 10.66 -31 11 C-31.99 11.99 -32.98 12.98 -34 14 C-34.7269226 17.10839021 -34.7269226 17.10839021 -35 20 C-35.33 20 -35.66 20 -36 20 C-36.54415274 5.12649165 -36.54415274 5.12649165 -28 0 C-18.61854605 -1.4812822 -9.4365381 -0.71907969 0 0 Z " fill="#35B9E4" transform="translate(130,112)"/>
<path d="M0 0 C1.24587891 -0.01224609 2.49175781 -0.02449219 3.77539062 -0.03710938 C21.78971069 -0.06577938 21.78971069 -0.06577938 27.1875 7.1875 C27.1875 8.8375 27.1875 10.4875 27.1875 12.1875 C26.5275 10.8675 25.8675 9.5475 25.1875 8.1875 C21.62083333 4.8875 21.62083333 4.8875 18.1875 5.1875 C18.1875 4.5275 18.1875 3.8675 18.1875 3.1875 C-0.1275 2.6925 -0.1275 2.6925 -18.8125 2.1875 C-18.8125 1.8575 -18.8125 1.5275 -18.8125 1.1875 C-12.4845723 -0.07808554 -6.43546902 0.00329855 0 0 Z " fill="#3EBAE2" transform="translate(175.8125,20.8125)"/>
<path d="M0 0 C7.0021055 3.50105275 5.12003101 10.35001328 5.09765625 17.5546875 C5.09443359 19.38515625 5.09121094 21.215625 5.08789062 23.1015625 C5.07951172 25.00679687 5.07113281 26.91203125 5.0625 28.875 C5.05798828 30.8034375 5.05347656 32.731875 5.04882812 34.71875 C5.03704484 39.47919795 5.02059278 44.23958333 5 49 C1.25312957 47.12656478 2.69357421 41.83517988 2.65625 38.09375 C2.6416272 37.0987146 2.62700439 36.1036792 2.61193848 35.07849121 C2.54939153 30.80131952 2.50998949 26.52399926 2.46826172 22.24658203 C2.43464978 19.13297992 2.38950442 16.01969338 2.34375 12.90625 C2.32505859 11.03259766 2.30636719 9.15894531 2.28710938 7.22851562 C2.60655513 2.94407872 2.60655513 2.94407872 0 2 C0 1.34 0 0.68 0 0 Z " fill="#39BDEB" transform="translate(199,163)"/>
<path d="M0 0 C-19.88788427 18.94394213 -19.88788427 18.94394213 -30 24 C-29.67 22.02 -29.34 20.04 -29 18 C-28.01 18 -27.02 18 -26 18 C-26 17.34 -26 16.68 -26 16 C-25.01 16 -24.02 16 -23 16 C-23 15.34 -23 14.68 -23 14 C-22.01 14 -21.02 14 -20 14 C-20 13.34 -20 12.68 -20 12 C-18.35 11.34 -16.7 10.68 -15 10 C-10.36401681 6.55111385 -10.36401681 6.55111385 -7 2 C-2 -1 -2 -1 0 0 Z " fill="#3EC0ED" transform="translate(368,250)"/>
<path d="M0 0 C0.99 0 1.98 0 3 0 C3.17042079 26.07438119 3.17042079 26.07438119 2.75 35.8125 C2.70359375 36.89144531 2.6571875 37.97039062 2.609375 39.08203125 C1.84937288 42.72127218 0.20777287 45.0459999 -2 48 C-2.66 47.67 -3.32 47.34 -4 47 C-3.01 45.35 -2.02 43.7 -1 42 C-0.02728187 36.57703542 0.11848992 31.28133879 0.09765625 25.78125 C0.09443359 24.27304687 0.09121094 22.76484375 0.08789062 21.2109375 C0.07951172 19.65632813 0.07113281 18.10171875 0.0625 16.5 C0.05798828 14.91445312 0.05347656 13.32890625 0.04882812 11.6953125 C0.03708573 7.79683601 0.02066197 3.89843773 0 0 Z " fill="#3EBAE6" transform="translate(263,238)"/>
<path d="M0 0 C2.17432617 -0.02416992 2.17432617 -0.02416992 4.39257812 -0.04882812 C6.49729492 -0.04979492 6.49729492 -0.04979492 8.64453125 -0.05078125 C9.92303955 -0.05376221 11.20154785 -0.05674316 12.51879883 -0.05981445 C16.56719448 0.35103291 19.54744659 1.5369286 23.1875 3.3125 C22.8575 4.3025 22.5275 5.2925 22.1875 6.3125 C21.20450928 5.8280542 20.22151855 5.3436084 19.20874023 4.84448242 C14.82761934 3.17539532 11.52078063 2.88636961 6.84765625 2.80078125 C5.29111328 2.76533203 3.73457031 2.72988281 2.13085938 2.69335938 C0.52017578 2.67080078 -1.09050781 2.64824219 -2.75 2.625 C-4.38775391 2.59083984 -6.02550781 2.55667969 -7.71289062 2.52148438 C-11.7460254 2.4391755 -15.77894729 2.36996344 -19.8125 2.3125 C-13.49354645 -0.84697678 -6.96885832 -0.01537022 0 0 Z " fill="#48C0E5" transform="translate(237.8125,210.6875)"/>
<path d="M0 0 C1.58876953 -0.00257812 3.17753906 -0.00515625 4.81445312 -0.0078125 C7.30588867 0.00378906 7.30588867 0.00378906 9.84765625 0.015625 C11.50474609 0.00789063 13.16183594 0.00015625 14.86914062 -0.0078125 C17.25422852 -0.00394531 17.25422852 -0.00394531 19.6875 0 C21.14406006 0.00225586 22.60062012 0.00451172 24.10131836 0.00683594 C27.91015625 0.265625 27.91015625 0.265625 32.91015625 2.265625 C29.33427067 4.05356779 25.23175575 3.24777236 21.30859375 3.14453125 C19.375 3.09619141 17.44140625 3.04785156 15.44921875 2.99804688 C13.39452816 2.94151831 11.3398407 2.8848762 9.28515625 2.828125 C7.22266852 2.77491308 5.16016856 2.72217262 3.09765625 2.66992188 C-1.96498338 2.5398073 -7.02744712 2.4048267 -12.08984375 2.265625 C-7.55655615 -0.0010188 -5.02914063 0.00779496 0 0 Z " fill="#3FBBE2" transform="translate(54.08984375,48.734375)"/>
<path d="M0 0 C2 1 2 1 2 3 C2.66 3 3.32 3 4 3 C4.103125 4.546875 4.20625 6.09375 4.3125 7.6875 C4.66538369 13.19821858 4.66538369 13.19821858 8 18 C6 21 6 21 4 21 C4 28.92 4 36.84 4 45 C3.67 45 3.34 45 3 45 C2.93941406 43.04578125 2.87882812 41.0915625 2.81640625 39.078125 C2.73192991 36.46874485 2.64728555 33.85937013 2.5625 31.25 C2.52318359 29.96738281 2.48386719 28.68476563 2.44335938 27.36328125 C2.17960305 13.56342975 2.17960305 13.56342975 0 0 Z " fill="#38C0EE" transform="translate(261,217)"/>
<path d="M0 0 C5.95499437 2.97749719 6.25143978 6.13429674 6.22705078 12.32910156 C6.22689972 13.61012756 6.22674866 14.89115356 6.22659302 16.21099854 C6.21627045 17.59027527 6.20594788 18.969552 6.1953125 20.390625 C6.1924826 21.80551208 6.18965271 23.22039917 6.18673706 24.67816162 C6.17553201 29.20219337 6.15042635 33.72602797 6.125 38.25 C6.11497064 41.31510131 6.10584472 44.38020572 6.09765625 47.4453125 C6.07559153 54.96361776 6.04105903 62.48177544 6 70 C5.67 70 5.34 70 5 70 C4.9906543 68.15325684 4.98130859 66.30651367 4.97167969 64.40380859 C4.93179405 57.54907145 4.86603748 50.69478377 4.79248047 43.84033203 C4.76426291 40.87424495 4.74305238 37.90808256 4.72900391 34.94189453 C4.70758671 30.67701642 4.66093779 26.41304456 4.609375 22.1484375 C4.60814636 20.8232309 4.60691772 19.49802429 4.60565186 18.13265991 C4.5063239 9.36666637 4.5063239 9.36666637 0 2 C0 1.34 0 0.68 0 0 Z " fill="#41BAE1" transform="translate(274,80)"/>
<path d="M0 0 C7.50125323 3.00050129 8.3829536 7.13292708 8.36328125 14.859375 C8.36263672 16.13941406 8.36199219 17.41945312 8.36132812 18.73828125 C8.34521484 20.06214844 8.32910156 21.38601562 8.3125 22.75 C8.31572266 24.08933594 8.31894531 25.42867187 8.32226562 26.80859375 C8.2670747 36.7329253 8.2670747 36.7329253 6 39 C6.01571045 38.06615479 6.0314209 37.13230957 6.04760742 36.17016602 C6.10969777 31.9676715 6.14890873 27.76527312 6.1875 23.5625 C6.21263672 22.09232422 6.23777344 20.62214844 6.26367188 19.10742188 C6.27333984 17.71201172 6.28300781 16.31660156 6.29296875 14.87890625 C6.3086792 13.5854126 6.32438965 12.29191895 6.34057617 10.95922852 C6.41072397 7.63340451 6.41072397 7.63340451 3 7 C3 5.68 3 4.36 3 3 C2.01 2.01 1.02 1.02 0 0 Z " fill="#3ABDEA" transform="translate(130,113)"/>
<path d="M0 0 C7.80606258 3.90303129 7.36598102 10.864081 7.29296875 18.87109375 C7.28330078 20.74345703 7.27363281 22.61582031 7.26367188 24.54492188 C7.23853516 26.48947266 7.21339844 28.43402344 7.1875 30.4375 C7.17396484 32.40912109 7.16042969 34.38074219 7.14648438 36.41210938 C7.11116059 41.27501643 7.06182519 46.13736944 7 51 C6.67 51 6.34 51 6 51 C5.97494385 49.95134766 5.9498877 48.90269531 5.92407227 47.82226562 C5.80767344 43.04806621 5.68514604 38.27404284 5.5625 33.5 C5.52318359 31.85 5.48386719 30.2 5.44335938 28.5 C5.40146484 26.9015625 5.35957031 25.303125 5.31640625 23.65625 C5.27974854 22.18994141 5.24309082 20.72363281 5.20532227 19.21289062 C5.67722845 10.96121281 5.67722845 10.96121281 1 6 C0.3125 2.9375 0.3125 2.9375 0 0 Z " fill="#3FBBE2" transform="translate(87,51)"/>
<path d="M0 0 C-4.99890911 12.49727277 -17.97752738 9.21919602 -29.375 9.25 C-31.27507813 9.270625 -33.17515625 9.29125 -35.1328125 9.3125 C-36.95296875 9.31765625 -38.773125 9.3228125 -40.6484375 9.328125 C-42.32083496 9.3374707 -43.99323242 9.34681641 -45.71630859 9.35644531 C-50 9 -50 9 -55 6 C-53 5 -53 5 -50.40649414 5.92089844 C-46.29674685 7.22277495 -42.80564795 7.25908653 -38.49609375 7.265625 C-36.86865234 7.26820312 -35.24121094 7.27078125 -33.56445312 7.2734375 C-31.02661133 7.26183594 -31.02661133 7.26183594 -28.4375 7.25 C-26.74173828 7.25773437 -25.04597656 7.26546875 -23.29882812 7.2734375 C-21.67267578 7.27085938 -20.04652344 7.26828125 -18.37109375 7.265625 C-16.88536865 7.26336914 -15.39964355 7.26111328 -13.86889648 7.25878906 C-7.23861794 6.81529217 -4.08518525 0 0 0 Z " fill="#44BDE5" transform="translate(93,103)"/>
<path d="M0 0 C-4.20769957 1.62665704 -8.41612648 3.25138567 -12.625 4.875 C-13.81480469 5.33519531 -15.00460938 5.79539062 -16.23046875 6.26953125 C-17.96103516 6.93662109 -17.96103516 6.93662109 -19.7265625 7.6171875 C-21.31331787 8.22989502 -21.31331787 8.22989502 -22.93212891 8.85498047 C-23.94452637 9.23283691 -24.95692383 9.61069336 -26 10 C-27.03688965 10.39977051 -28.0737793 10.79954102 -29.14208984 11.21142578 C-32 12 -32 12 -36 11 C-34.845 10.71125 -33.69 10.4225 -32.5 10.125 C-31.345 9.75375 -30.19 9.3825 -29 9 C-29 8.34 -29 7.68 -29 7 C-25.535 6.505 -25.535 6.505 -22 6 C-22 5.01 -22 4.02 -22 3 C-21.071875 3.0825 -20.14375 3.165 -19.1875 3.25 C-15.26608003 3.01588537 -12.91161034 2.34144251 -9.3125 0.9375 C-4 -1 -4 -1 0 0 Z " fill="#40BEEA" transform="translate(235,335)"/>
<path d="M0 0 C0.66 0.33 1.32 0.66 2 1 C-6.15123214 9.43230911 -22.81927574 8.34089334 -33.3125 5.625 C-37 4 -37 4 -38 2 C-32.25 2.875 -32.25 2.875 -30 4 C-26.62739359 4.15197187 -23.25091111 4.22182828 -19.875 4.25 C-17.11769531 4.28867188 -17.11769531 4.28867188 -14.3046875 4.328125 C-9.4890687 4.03025167 -3.64748426 3.64748426 0 0 Z " fill="#48BEE5" transform="translate(135,152)"/>
<path d="M0 0 C0.86625 0.33 1.7325 0.66 2.625 1 C14.09074293 3.62074124 28.621502 2.8446245 40 0 C40 2 40 2 36 4 C9.52640934 6.71584561 9.52640934 6.71584561 0 1 C0 0.67 0 0.34 0 0 Z " fill="#46BCE6" transform="translate(207,271)"/>
<path d="M0 0 C0.4025134 22.83145444 0.4025134 22.83145444 -2 31 C-3.32 31 -4.64 31 -6 31 C-5.34 29.35 -4.68 27.7 -4 26 C-2.48923862 19.13199925 -2.57891652 12.04344738 -2.28125 5.04296875 C-1.93043478 0 -1.93043478 0 0 0 Z " fill="#33B9E5" transform="translate(117,301)"/>
<path d="M0 0 C-5.38594131 4.03945599 -9.07804456 4.12277675 -15.609375 4.09765625 C-17.82333984 4.09282227 -17.82333984 4.09282227 -20.08203125 4.08789062 C-21.62246094 4.07951172 -23.16289062 4.07113281 -24.75 4.0625 C-26.30589844 4.05798828 -27.86179688 4.05347656 -29.46484375 4.04882812 C-33.30993434 4.03703337 -37.15494798 4.02057362 -41 4 C-41 3.67 -41 3.34 -41 3 C-36.85447912 2.66232848 -32.70865371 2.32973173 -28.5625 2 C-27.39783203 1.90460938 -26.23316406 1.80921875 -25.03320312 1.7109375 C-19.93335872 1.30869625 -14.96084234 1.00047428 -9.83984375 1.0625 C-5.34215235 0.98929241 -4.17533611 -1.3917787 0 0 Z " fill="#3DBEEA" transform="translate(201,74)"/>
</svg>
